<svg width="46" height="46" viewBox="0 0 46 46" fill="none" xmlns="http://www.w3.org/2000/svg">
<rect width="46" height="46" rx="16" fill="#0F0E0E"/>
<path d="M16.544 16.32C16.544 14.9547 16.8 13.8347 17.312 12.96C17.8453 12.064 18.5067 11.36 19.296 10.848C20.1067 10.3147 20.992 9.952 21.952 9.76C22.9333 9.54667 23.872 9.44 24.768 9.44C25.024 9.44 25.344 9.45067 25.728 9.472C26.1333 9.49333 26.5493 9.52533 26.976 9.568C27.424 9.61067 27.872 9.67466 28.32 9.76C28.7893 9.824 29.2267 9.92 29.632 10.048C29.6747 10.6027 29.7067 11.1253 29.728 11.616C29.7493 12.0853 29.76 12.6293 29.76 13.248C29.76 13.8667 29.7493 14.464 29.728 15.04C29.7067 15.5947 29.6747 16.128 29.632 16.64C29.4613 16.6187 29.2373 16.5867 28.96 16.544C28.704 16.5013 28.4267 16.4693 28.128 16.448C27.8507 16.4267 27.5627 16.4053 27.264 16.384C26.9867 16.3627 26.72 16.352 26.464 16.352C25.44 16.352 24.6933 16.512 24.224 16.832C23.7547 17.152 23.52 17.5893 23.52 18.144C23.52 18.464 23.5947 18.7733 23.744 19.072C23.8933 19.3493 24.0853 19.616 24.32 19.872C24.576 20.128 24.8533 20.3733 25.152 20.608C25.472 20.8427 25.792 21.0667 26.112 21.28C26.624 21.6427 27.136 22.048 27.648 22.496C28.1813 22.9227 28.6613 23.4453 29.088 24.064C29.5147 24.6613 29.8667 25.3653 30.144 26.176C30.4213 26.9653 30.56 27.8827 30.56 28.928C30.56 30.2933 30.3253 31.4453 29.856 32.384C29.3867 33.3227 28.7787 34.0907 28.032 34.688C27.3067 35.264 26.4853 35.6907 25.568 35.968C24.672 36.224 23.776 36.352 22.88 36.352C22.4747 36.352 21.9733 36.32 21.376 36.256C20.8 36.2133 20.2133 36.1387 19.616 36.032C19.0187 35.9467 18.4533 35.84 17.92 35.712C17.3867 35.5627 16.96 35.392 16.64 35.2C16.5547 34.816 16.48 34.4213 16.416 34.016C16.3733 33.6107 16.352 33.1627 16.352 32.672C16.352 32.3307 16.3627 31.9147 16.384 31.424C16.4267 30.9333 16.4693 30.432 16.512 29.92C16.5547 29.408 16.5973 28.9173 16.64 28.448C16.704 27.9787 16.7573 27.584 16.8 27.264C17.0347 27.392 17.376 27.5413 17.824 27.712C18.272 27.8613 18.752 28.0107 19.264 28.16C19.7973 28.3093 20.3307 28.4373 20.864 28.544C21.3973 28.6507 21.8667 28.704 22.272 28.704C22.9547 28.704 23.4667 28.5653 23.808 28.288C24.1493 27.9893 24.32 27.5947 24.32 27.104C24.32 26.5707 24.128 26.1013 23.744 25.696C23.36 25.2693 22.88 24.8533 22.304 24.448C21.728 24.0427 21.0987 23.616 20.416 23.168C19.7547 22.6987 19.136 22.1547 18.56 21.536C17.984 20.9173 17.504 20.192 17.12 19.36C16.736 18.5067 16.544 17.4933 16.544 16.32Z" fill="#FF2950"/>
</svg>
